<svg width="142" height="42" viewBox="0 0 142 42" fill="none" xmlns="http://www.w3.org/2000/svg">
<path d="M52.485 27.2105C50.757 27.217 49.4055 26.802 48.4303 25.9656C47.4552 25.1173 46.9347 23.9132 46.8689 22.3534C46.8556 22.0055 46.8475 21.4535 46.8447 20.6975C46.8419 19.9415 46.8458 19.3895 46.8565 19.0415C46.9109 17.5172 47.4285 16.3393 48.4094 15.5076C49.4023 14.6759 50.7447 14.2569 52.4367 14.2506C53.5767 14.2464 54.5674 14.4287 55.4088 14.7976C56.2622 15.1664 56.9119 15.638 57.3581 16.2123C57.8162 16.7866 58.0584 17.3797 58.0847 17.9916C58.0851 18.0996 58.0434 18.1898 57.9597 18.2621C57.888 18.3343 57.7981 18.3707 57.6901 18.3711L55.0621 18.3809C54.9421 18.3813 54.8461 18.3637 54.7739 18.3279C54.7018 18.2922 54.6416 18.2264 54.5932 18.1306C54.4359 17.7832 54.1888 17.4841 53.8518 17.2334C53.5149 16.9706 53.0464 16.8404 52.4464 16.8426C51.0184 16.8479 50.2712 17.6067 50.2048 19.119C50.1941 19.455 50.19 19.977 50.1927 20.685C50.1953 21.381 50.2032 21.903 50.2165 22.251C50.2944 23.8347 51.0654 24.6238 52.5294 24.6183C53.2374 24.6157 53.8007 24.4336 54.2193 24.072C54.6499 23.6984 54.8638 23.1336 54.861 22.3776L54.8597 22.0356L53.1678 22.042C53.0358 22.0424 52.9276 22.0008 52.8433 21.9172C52.7589 21.8215 52.7165 21.7076 52.716 21.5756L52.7111 20.2436C52.7106 20.1116 52.7522 20.0035 52.8358 19.9192C52.9195 19.8229 53.0273 19.7745 53.1593 19.774L57.6953 19.7571C57.8273 19.7566 57.9355 19.8042 58.0198 19.8999C58.1041 19.9835 58.1465 20.0914 58.147 20.2234L58.1547 22.2754C58.1585 23.2954 57.9278 24.1782 57.4625 24.924C56.9973 25.6577 56.3334 26.2242 55.4708 26.6234C54.6203 27.0106 53.625 27.2063 52.485 27.2105ZM64.468 27.1659C62.98 27.1714 61.8327 26.8217 61.0261 26.1167C60.2194 25.4117 59.7777 24.4173 59.701 23.1336C59.6884 22.9777 59.6814 22.7077 59.6799 22.3237C59.6785 21.9397 59.6835 21.6697 59.6949 21.5136C59.7622 20.2414 60.2085 19.2497 61.0338 18.5386C61.8591 17.8155 62.9918 17.4513 64.4318 17.4459C65.8838 17.4405 67.0251 17.7963 67.8558 18.5132C68.6864 19.2181 69.1401 20.2064 69.2168 21.4781C69.2294 21.6341 69.2364 21.9041 69.2379 22.2881C69.2393 22.6721 69.2343 22.9421 69.2229 23.0981C69.1557 24.3824 68.7214 25.38 67.92 26.091C67.1187 26.802 65.968 27.1603 64.468 27.1659ZM64.4598 24.9699C64.9878 24.9679 65.3772 24.8105 65.6281 24.4975C65.8789 24.1726 66.021 23.6801 66.0546 23.0199C66.0661 22.8999 66.0712 22.6599 66.0699 22.2999C66.0685 21.9399 66.0617 21.6999 66.0492 21.5799C66.0108 20.9321 65.859 20.4466 65.5938 20.1236C65.3406 19.8006 64.956 19.64 64.44 19.6419C63.444 19.6456 62.9184 20.2956 62.8632 21.5918L62.8479 22.3119L62.8686 23.0318C62.8951 23.6917 63.0349 24.1832 63.2881 24.5063C63.5533 24.8173 63.9438 24.9718 64.4598 24.9699Z" fill="black"/>
<path d="M76.4078 27.1214C74.6918 27.1278 73.3463 26.7188 72.3712 25.8944C71.4081 25.058 70.8936 23.8479 70.8277 22.2641C70.8145 21.9402 70.8065 21.4122 70.8038 20.6802C70.801 19.9362 70.805 19.3962 70.8158 19.0602C70.8699 17.5 71.3875 16.298 72.3683 15.4544C73.3491 14.5987 74.6795 14.1677 76.3595 14.1615C77.4155 14.1575 78.3642 14.334 79.2055 14.6909C80.0468 15.0357 80.7087 15.5373 81.1911 16.1955C81.6856 16.8416 81.9404 17.6027 81.9557 18.4786L81.9558 18.5146C81.9562 18.6106 81.9145 18.6948 81.8307 18.7671C81.759 18.8274 81.6751 18.8577 81.5791 18.8581L79.1491 18.8671C78.9931 18.8677 78.873 18.8381 78.7888 18.7784C78.7045 18.7068 78.632 18.581 78.5714 18.4013C78.4011 17.7899 78.1355 17.3649 77.7746 17.1262C77.4137 16.8756 76.9392 16.7513 76.3512 16.7535C74.9352 16.7588 74.2062 17.5535 74.1641 19.1377C74.1533 19.4617 74.1491 19.9597 74.1516 20.6317C74.1541 21.3037 74.162 21.8137 74.1753 22.1617C74.2292 23.7455 74.9642 24.5347 76.3802 24.5295C76.9682 24.5273 77.4477 24.3995 77.8188 24.1461C78.1898 23.8807 78.4462 23.4538 78.588 22.8652C78.6353 22.685 78.7009 22.5648 78.7846 22.5045C78.8684 22.4322 78.9942 22.3957 79.1622 22.3951L81.5922 22.386C81.7002 22.3856 81.7904 22.4213 81.8626 22.493C81.9469 22.5647 81.9832 22.6546 81.9716 22.7626C81.9629 23.6387 81.7138 24.4076 81.2242 25.0694C80.7466 25.7192 80.0885 26.2257 79.2499 26.5888C78.4112 26.9399 77.4638 27.1174 76.4078 27.1214ZM88.1104 27.0778C86.6224 27.0833 85.4751 26.7336 84.6685 26.0286C83.8619 25.3236 83.4201 24.3292 83.3434 23.0455C83.3308 22.8896 83.3238 22.6196 83.3223 22.2356C83.3209 21.8516 83.3259 21.5816 83.3373 21.4255C83.4046 20.1533 83.8509 19.1616 84.6762 18.4505C85.5016 17.7274 86.6342 17.3632 88.0742 17.3578C89.5262 17.3524 90.6675 17.7082 91.4982 18.4251C92.3288 19.13 92.7825 20.1183 92.8593 21.39C92.8718 21.546 92.8788 21.816 92.8803 22.2C92.8817 22.584 92.8767 22.854 92.8653 23.01C92.7981 24.2943 92.3638 25.2919 91.5624 26.0029C90.7611 26.7139 89.6104 27.0722 88.1104 27.0778ZM88.1022 24.8818C88.6302 24.8798 89.0197 24.7224 89.2705 24.4094C89.5213 24.0845 89.6634 23.592 89.697 22.9318C89.7085 22.8118 89.7136 22.5718 89.7123 22.2118C89.711 21.8518 89.7041 21.6118 89.6916 21.4918C89.6532 20.844 89.5014 20.3585 89.2362 20.0355C88.983 19.7125 88.5984 19.5519 88.0824 19.5538C87.0864 19.5575 86.5608 20.2075 86.5056 21.5037L86.4903 22.2238L86.511 22.9437C86.5375 23.6036 86.6773 24.0951 86.9305 24.4181C87.1957 24.7292 87.5862 24.8837 88.1022 24.8818ZM95.1356 26.8716C95.0036 26.8721 94.8955 26.8305 94.8111 26.7468C94.7268 26.6631 94.6844 26.5553 94.6839 26.4233L94.6524 17.9633C94.6519 17.8313 94.6935 17.7232 94.7772 17.6389C94.8609 17.5545 94.9687 17.5121 95.1007 17.5116L97.1707 17.5039C97.3027 17.5034 97.4109 17.551 97.4952 17.6467C97.5916 17.7304 97.6399 17.8322 97.6404 17.9522L97.6431 18.6722C98.3002 17.8897 99.1867 17.4964 100.303 17.4923L101.095 17.4893C101.227 17.4888 101.335 17.5304 101.419 17.6141C101.503 17.6978 101.546 17.8056 101.546 17.9376L101.553 19.7916C101.554 19.9116 101.512 20.0198 101.428 20.1161C101.345 20.2004 101.237 20.2428 101.105 20.2433L99.359 20.2498C98.867 20.2516 98.4835 20.3911 98.2085 20.6681C97.9455 20.9331 97.8149 21.3116 97.8167 21.8036L97.8339 26.4115C97.8344 26.5435 97.7868 26.6517 97.6911 26.7361C97.6074 26.8204 97.4996 26.8628 97.3676 26.8633L95.1356 26.8716ZM107.2 27.0066C105.712 27.0122 104.565 26.6624 103.758 25.9574C102.952 25.2524 102.51 24.2581 102.433 22.9744C102.42 22.8184 102.413 22.5484 102.412 22.1644C102.411 21.7804 102.416 21.5104 102.427 21.3544C102.494 20.0821 102.941 19.0904 103.766 18.3794C104.591 17.6563 105.724 17.2921 107.164 17.2867C108.616 17.2813 109.757 17.637 110.588 18.3539C111.419 19.0588 111.872 20.0472 111.949 21.3189C111.962 21.4748 111.969 21.7448 111.97 22.1288C111.971 22.5128 111.966 22.7828 111.955 22.9389C111.888 24.2231 111.454 25.2208 110.652 25.9318C109.851 26.6427 108.7 27.001 107.2 27.0066ZM107.192 24.8106C107.72 24.8087 108.109 24.6512 108.36 24.3383C108.611 24.0133 108.753 23.5208 108.787 22.8607C108.798 22.7406 108.803 22.5006 108.802 22.1406C108.801 21.7806 108.794 21.5406 108.781 21.4207C108.743 20.7728 108.591 20.2874 108.326 19.9644C108.073 19.6413 107.688 19.4808 107.172 19.4827C106.176 19.4864 105.651 20.1364 105.595 21.4326L105.58 22.1526L105.601 22.8726C105.627 23.5325 105.767 24.0239 106.02 24.347C106.285 24.658 106.676 24.8126 107.192 24.8106ZM114.225 26.8004C114.093 26.8009 113.985 26.7593 113.901 26.6757C113.817 26.592 113.774 26.4841 113.774 26.3521L113.742 17.8922C113.742 17.7602 113.783 17.652 113.867 17.5677C113.951 17.4834 114.058 17.441 114.19 17.4405L116.26 17.4328C116.392 17.4323 116.501 17.4739 116.585 17.5576C116.681 17.6412 116.73 17.749 116.73 17.881L116.733 18.565C117.055 18.1678 117.468 17.8483 117.971 17.6064C118.486 17.3645 119.068 17.2423 119.716 17.2399C120.772 17.236 121.631 17.5928 122.294 18.3103C122.956 19.0159 123.29 20.0106 123.295 21.2946L123.314 26.3166C123.314 26.4366 123.272 26.5447 123.189 26.641C123.105 26.7254 122.997 26.7678 122.865 26.7682L120.597 26.7767C120.477 26.7771 120.369 26.7355 120.273 26.6519C120.188 26.5562 120.146 26.4484 120.146 26.3284L120.127 21.4144C120.125 20.8504 119.986 20.4189 119.708 20.12C119.431 19.809 119.035 19.6545 118.519 19.6564C118.015 19.6583 117.619 19.8157 117.332 20.1288C117.046 20.4299 116.903 20.8624 116.905 21.4264L116.924 26.3404C116.924 26.4604 116.882 26.5685 116.799 26.6649C116.715 26.7492 116.607 26.7916 116.475 26.7921L114.225 26.8004ZM128.15 26.9286C127.514 26.9309 126.932 26.8131 126.403 26.5751C125.886 26.325 125.477 25.9905 125.175 25.5716C124.886 25.1407 124.74 24.6672 124.738 24.1512C124.735 23.3233 125.068 22.656 125.738 22.1495C126.421 21.643 127.355 21.2915 128.543 21.095L130.791 20.7447L130.79 20.4927C130.789 20.0367 130.691 19.701 130.499 19.4857C130.306 19.2705 129.981 19.1637 129.525 19.1654C129.249 19.1664 129.022 19.2152 128.842 19.3119C128.662 19.4086 128.477 19.5413 128.285 19.71C128.118 19.8546 127.992 19.9511 127.908 19.9994C127.873 20.0955 127.807 20.1438 127.711 20.1441L125.749 20.1515C125.629 20.1519 125.527 20.1163 125.443 20.0446C125.37 19.9609 125.34 19.865 125.352 19.7569C125.362 19.4329 125.517 19.0723 125.816 18.6752C126.126 18.278 126.593 17.9343 127.216 17.644C127.851 17.3536 128.63 17.2067 129.554 17.2033C131.03 17.1978 132.123 17.5237 132.834 18.181C133.544 18.8264 133.901 19.7011 133.906 20.8051L133.926 26.277C133.926 26.397 133.885 26.5052 133.801 26.6015C133.717 26.6858 133.61 26.7282 133.478 26.7287L131.39 26.7365C131.27 26.7369 131.161 26.6953 131.065 26.6117C130.981 26.516 130.938 26.4082 130.938 26.2882L130.936 25.6582C130.673 26.0311 130.302 26.3385 129.823 26.5803C129.356 26.8101 128.798 26.9261 128.15 26.9286ZM128.989 24.8734C129.541 24.8714 129.984 24.6897 130.319 24.3285C130.665 23.9672 130.837 23.4385 130.835 22.7425L130.834 22.4905L129.305 22.7662C128.226 22.9622 127.687 23.3423 127.689 23.9062C127.69 24.2062 127.817 24.4458 128.07 24.6248C128.322 24.7919 128.629 24.8748 128.989 24.8734Z" fill="#EC5863"/>
<path d="M15.1653 6.19663C16.5881 5.69181 18.1564 6.35964 18.6674 7.68763C19.0586 8.70436 18.7161 9.81242 17.8968 10.5031L18.3454 11.7124L19.055 12.525C19.2169 12.711 19.4619 12.7993 19.707 12.7683C20.3677 12.6845 21.0246 12.679 21.6682 12.7442C21.8863 12.7665 22.1029 12.6937 22.2588 12.5411L22.7668 12.0458L23.1386 10.9501C22.8172 10.5124 22.7067 9.93151 22.8943 9.37849C23.2125 8.44103 24.2618 7.95321 25.1979 8.33313C26.0043 8.66001 26.4457 9.55401 26.2131 10.3883C26.0653 10.9197 25.6878 11.3188 25.222 11.5173L24.8103 12.7315L24.9077 13.3993C24.9412 13.6288 25.0784 13.829 25.2781 13.9485C25.9495 14.3525 26.5667 14.8472 27.109 15.4197C27.2912 15.6124 27.5624 15.6943 27.8224 15.6409L29.1612 15.367L30.6716 14.5219C30.6767 13.7776 31.0719 13.0566 31.7706 12.6656C32.8271 12.0748 34.1693 12.4642 34.7375 13.5374C35.2503 14.5056 34.9352 15.7263 34.015 16.327C33.2965 16.7952 32.4175 16.7814 31.7376 16.3864L30.2182 17.236L29.3713 18.1422C29.144 18.3853 29.064 18.7283 29.1523 19.0487C29.1528 19.0506 29.1532 19.0519 29.1537 19.0538C29.3047 19.6061 29.3972 20.1613 29.4367 20.7119C29.4596 21.0399 29.6464 21.3344 29.9378 21.4901L31.0497 22.0841L33.2507 22.4907C33.6371 22.1516 34.1706 21.9863 34.7167 22.0867C35.696 22.2679 36.3296 23.2339 36.0825 24.2098C35.87 25.0454 35.0494 25.6043 34.1888 25.4981C33.6019 25.4257 33.1271 25.0749 32.8709 24.6019L30.6557 24.1931L29.2909 24.3643C29.0393 24.3964 28.8202 24.5546 28.7184 24.7855C28.3132 25.697 27.7527 26.536 27.0594 27.261C26.8871 27.4412 26.8232 27.6984 26.8868 27.9388L27.2311 29.2475L28.0737 30.5542C28.9947 30.4129 29.9551 30.8066 30.4901 31.6366C31.2094 32.7517 30.8906 34.233 29.7802 34.9583C28.6705 35.6835 27.1556 35.3754 26.4223 34.2742C25.9089 33.5034 25.8998 32.5501 26.3108 31.7923L25.4163 30.4053L24.3194 29.5124C24.157 29.3794 23.9362 29.3449 23.7389 29.4159C23.5198 29.4948 23.2965 29.5654 23.068 29.6271C21.8266 29.9629 20.5738 30.0103 19.3814 29.8122C19.2065 29.7836 19.0281 29.8339 18.8949 29.9499L18.3099 30.4606L17.8775 31.534C18.1744 31.9892 18.2521 32.5749 18.0342 33.1164C17.6638 34.0355 16.589 34.4645 15.6758 34.0336C14.8893 33.6627 14.4982 32.7456 14.7769 31.9253C14.9544 31.4028 15.3528 31.0252 15.8292 30.853L16.3082 29.6633L16.2145 28.6203C15.3406 28.0791 14.5622 27.3834 13.9247 26.5601L12.4341 26.7124L11.041 27.4058C11.0535 28.3392 10.5751 29.2291 9.73103 29.6621C8.53838 30.2735 7.06861 29.7417 6.44857 28.4737C5.82871 27.2063 6.2922 25.6832 7.48485 25.0719C8.37736 24.6142 9.42445 24.7967 10.1549 25.4492L11.4688 24.7949L12.3786 23.8147C12.438 23.7505 12.4598 23.6605 12.4368 23.5766L12.4365 23.5753C12.0085 22.01 12.0457 20.426 12.4638 18.9687C12.4862 18.8888 12.4688 18.8026 12.4147 18.7393L11.6231 17.8038L9.92195 16.9217C9.45506 17.1287 8.90065 17.1302 8.41212 16.8766C7.52959 16.4185 7.20808 15.3124 7.72991 14.4514C8.18804 13.6964 9.16874 13.4068 9.96739 13.79C10.4844 14.0379 10.819 14.5039 10.9193 15.0204L12.6205 15.9024L13.8294 16.0113C13.9134 16.0191 13.995 15.9835 14.048 15.9183C14.5936 15.2413 15.2439 14.6431 15.9833 14.1516C16.1862 14.0161 16.3118 13.7923 16.3141 13.549L16.3225 12.4554L15.844 11.1668C14.8168 11.0969 13.8855 10.4804 13.5138 9.5147C13.0027 8.18672 13.7422 6.70082 15.1653 6.19663Z" fill="#EC5863"/>
<path d="M26.9844 19.6405C26.0549 16.2411 22.5303 14.2348 19.1121 15.1593C15.6938 16.0839 13.6763 19.5891 14.6058 22.9886C15.5353 26.388 19.0599 28.3943 22.4781 27.4698C25.8964 26.5452 27.9139 23.0399 26.9844 19.6405Z" fill="#F58A97"/>
<path d="M21.9651 25.5937C18.8675 26.4315 15.6827 24.8626 14.4207 22.0312C14.4573 22.3498 14.5186 22.6696 14.6058 22.9886C15.5353 26.3881 19.0598 28.3943 22.4781 27.4698C25.8964 26.5452 27.9139 23.04 26.9844 19.6405C26.8972 19.3216 26.7872 19.0149 26.6565 18.7218C27.01 21.7989 25.0627 24.7559 21.9651 25.5937Z" fill="#F07281"/>
<path d="M12.3747 34.7145C12.11 33.7464 11.1063 33.1751 10.1329 33.4384C9.15948 33.7017 8.58495 34.6999 8.84965 35.6679C9.11435 36.636 10.118 37.2073 11.0915 36.9441C12.0649 36.6808 12.6394 35.6826 12.3747 34.7145Z" fill="#EB5569"/>
<path d="M35.1404 29.0716C34.9656 28.4322 34.3026 28.0548 33.6597 28.2287C33.0167 28.4026 32.6372 29.0619 32.812 29.7014C32.9869 30.3408 33.6498 30.7182 34.2928 30.5443C34.9357 30.3704 35.3152 29.711 35.1404 29.0716Z" fill="#EB5569"/>
<path d="M31.791 7.14811C31.5334 6.20629 30.557 5.65045 29.6099 5.90659C28.6629 6.16274 28.1039 7.13388 28.3615 8.0757C28.619 9.01751 29.5955 9.57336 30.5425 9.31721C31.4895 9.06107 32.0485 8.08993 31.791 7.14811Z" fill="#EB5569"/>
<path d="M21.2035 23.2332C20.9634 22.3551 20.053 21.8369 19.1701 22.0757C18.2871 22.3145 17.766 23.2199 18.0061 24.098C18.2462 24.9761 19.1566 25.4943 20.0395 25.2555C20.9224 25.0167 21.4435 24.1113 21.2035 23.2332Z" fill="#EB5569"/>
<path d="M25.3095 20.752C25.1461 20.1544 24.5265 19.8016 23.9255 19.9642C23.3246 20.1267 22.9699 20.743 23.1333 21.3406C23.2967 21.9383 23.9163 22.291 24.5173 22.1285C25.1183 21.9659 25.473 21.3497 25.3095 20.752Z" fill="#EB5569"/>
<path d="M20.9473 18.2826C20.8101 17.7807 20.2898 17.4845 19.7851 17.621C19.2805 17.7575 18.9826 18.275 19.1199 18.7768C19.2571 19.2787 19.7774 19.5749 20.2821 19.4384C20.7867 19.3019 21.0846 18.7844 20.9473 18.2826Z" fill="#EB5569"/>
</svg>
